<?xml version="1.0" encoding="UTF-8"?><svg id="_이어_1" xmlns="http://www.w3.org/2000/svg" viewBox="0 0 240.12 42.73"><defs><style>.cls-1{fill:#db2415;}.cls-2{fill:#4f5b53;}</style></defs><g><path class="cls-2" d="M52.93,32.52h1.42l3.14,5.03h.03v-5.03h1.35v7.18h-1.48l-3.09-4.95h-.03v4.95h-1.34v-7.18Z"/><path class="cls-2" d="M59.71,38.3c0-1.11,.87-1.43,1.85-1.56l1-.13c.52-.07,.68-.16,.68-.44v-.11c0-.65-.39-.84-.96-.84s-1.04,.19-1.04,.78v.11h-1.23v-.24c0-1.04,.71-1.61,2.3-1.61s2.23,.56,2.23,1.74v3.69h-1.26v-.95h-.05c-.11,.3-.59,1.06-1.78,1.06-.9,0-1.71-.43-1.71-1.5Zm3.52-.45v-.68c-.07,.12-.33,.18-.63,.23l-.84,.13c-.56,.08-.74,.34-.74,.66,0,.41,.28,.66,.83,.66,.84,0,1.37-.56,1.37-.99Z"/><path class="cls-2" d="M68.22,35.35c-.72,0-1.24,.43-1.24,1.3v3.05h-1.31v-5.33h1.31v1.1h.04c.1-.46,.62-1.2,1.74-1.2,1.05,0,1.86,.64,1.86,2.08v3.35h-1.31v-3.05c0-.87-.38-1.3-1.09-1.3Z"/><path class="cls-2" d="M71.47,37.03c0-1.93,1.3-2.77,2.65-2.77s2.65,.84,2.65,2.77-1.31,2.77-2.65,2.77-2.65-.84-2.65-2.77Zm4.05,0c0-1.16-.64-1.67-1.41-1.67s-1.42,.51-1.42,1.67,.64,1.67,1.42,1.67,1.41-.51,1.41-1.67Z"/><path class="cls-2" d="M79.96,32.52h4.81v1.18h-3.47v1.83h3.16v1.06h-3.16v1.94h3.57v1.18h-4.91v-7.18Z"/><path class="cls-2" d="M85.71,32.52h1.31v7.18h-1.31v-7.18Z"/><path class="cls-2" d="M87.87,37.02c0-1.97,1.22-2.76,2.61-2.76s2.5,.76,2.5,2.71c0,.18,0,.29-.03,.4h-3.85c.08,.99,.58,1.43,1.43,1.43,.67,0,1.06-.26,1.21-.77h1.17c-.29,1.21-1.22,1.77-2.41,1.77-1.38,0-2.63-.79-2.63-2.78Zm3.88-.45c-.03-.75-.42-1.3-1.28-1.3-.77,0-1.25,.43-1.34,1.3h2.62Z"/><path class="cls-2" d="M93.62,37.04c0-1.97,1.32-2.78,2.66-2.78,.93,0,2.19,.38,2.39,2.1h-1.19c-.13-.72-.61-.99-1.21-.99-.91,0-1.42,.67-1.42,1.67s.5,1.65,1.42,1.65c.62,0,1.08-.3,1.21-1h1.19c-.16,1.71-1.45,2.11-2.39,2.11-1.33,0-2.66-.79-2.66-2.76Z"/><path class="cls-2" d="M100.06,38.2v-2.81h-.89v-1.03h.89v-1.36h1.31v1.36h1.05v1.03h-1.05v2.6c0,.46,.14,.72,.7,.72,.12,0,.21,0,.41-.02v.98c-.23,.06-.48,.09-.76,.09-1,0-1.66-.44-1.66-1.57Z"/><path class="cls-2" d="M103.27,34.36h1.31v1.27h.03c.17-.72,.68-1.33,1.58-1.33,.12,0,.27,.01,.41,.05v1.11c-.15-.02-.28-.03-.41-.03-.88,0-1.61,.53-1.61,1.78v2.48h-1.31v-5.33Z"/><path class="cls-2" d="M106.93,37.03c0-1.93,1.3-2.77,2.65-2.77s2.65,.84,2.65,2.77-1.31,2.77-2.65,2.77-2.65-.84-2.65-2.77Zm4.05,0c0-1.16-.64-1.67-1.4-1.67s-1.42,.51-1.42,1.67,.64,1.67,1.42,1.67,1.4-.51,1.4-1.67Z"/><path class="cls-2" d="M115.61,35.35c-.72,0-1.24,.43-1.24,1.3v3.05h-1.31v-5.33h1.31v1.1h.04c.1-.46,.62-1.2,1.74-1.2,1.05,0,1.86,.64,1.86,2.08v3.35h-1.31v-3.05c0-.87-.38-1.3-1.09-1.3Z"/><path class="cls-2" d="M119.03,32.88c0-.42,.35-.74,.75-.74s.74,.32,.74,.74-.35,.74-.74,.74-.75-.32-.75-.74Zm.09,1.49h1.31v5.33h-1.31v-5.33Z"/><path class="cls-2" d="M121.27,37.04c0-1.97,1.32-2.78,2.66-2.78,.93,0,2.19,.38,2.39,2.1h-1.19c-.13-.72-.61-.99-1.21-.99-.91,0-1.42,.67-1.42,1.67s.5,1.65,1.42,1.65c.62,0,1.08-.3,1.21-1h1.19c-.16,1.71-1.45,2.11-2.39,2.11-1.33,0-2.66-.79-2.66-2.76Z"/><path class="cls-2" d="M126.87,38.01h1.17c.07,.56,.5,.79,1.12,.79,.56,0,.96-.19,.96-.65,0-.33-.21-.49-.62-.57l-.98-.22c-1.08-.25-1.5-.81-1.5-1.53,0-1,.86-1.58,2.14-1.58,1.35,0,2.12,.65,2.14,1.77h-1.09c-.08-.58-.47-.78-1.05-.78s-.88,.19-.88,.56c0,.31,.21,.5,.65,.58l1.02,.23c.84,.19,1.53,.56,1.53,1.5,0,1.18-1.09,1.67-2.33,1.67-1.37,0-2.27-.58-2.28-1.78Z"/><path class="cls-2" d="M134.47,37.67c0-1.02,.67-1.59,1.5-2.05-.44-.53-.73-1.03-.73-1.59,0-.81,.58-1.61,1.93-1.61,1.27,0,1.9,.74,1.9,1.62,0,.7-.4,1.36-1.39,1.85l1.41,1.55c.19-.42,.31-.93,.31-1.54h1.16c0,1.04-.25,1.84-.64,2.44l1.23,1.35h-1.47l-.5-.55c-.6,.45-1.34,.66-2.07,.66-1.53,0-2.62-.86-2.62-2.12Zm2.75,1.05c.42,0,.83-.14,1.18-.41l-1.76-1.94c-.62,.36-.81,.8-.81,1.18,0,.65,.54,1.17,1.39,1.17Zm-.24-3.6c.72-.39,.92-.73,.92-1.08,0-.44-.32-.71-.76-.71-.48,0-.77,.31-.77,.69,0,.33,.22,.65,.61,1.1Z"/><path class="cls-2" d="M144.13,36.11c0-2.26,1.36-3.68,3.37-3.68s3.38,1.43,3.38,3.68-1.37,3.69-3.38,3.69-3.37-1.45-3.37-3.69Zm5.36,0c0-1.58-.76-2.51-1.99-2.51s-1.99,.93-1.99,2.51,.76,2.52,1.99,2.52,1.99-.95,1.99-2.52Z"/><path class="cls-2" d="M151.83,34.36h1.31v.77c.26-.5,.87-.87,1.65-.87,1.15,0,2.35,.82,2.35,2.77s-1.2,2.77-2.35,2.77c-.78,0-1.39-.37-1.65-.87v2.72h-1.31v-7.28Zm4.08,2.67c0-1.15-.69-1.67-1.43-1.67s-1.4,.52-1.4,1.67,.69,1.67,1.4,1.67,1.43-.52,1.43-1.67Z"/><path class="cls-2" d="M158.35,38.2v-2.81h-.89v-1.03h.89v-1.36h1.31v1.36h1.05v1.03h-1.05v2.6c0,.46,.14,.72,.7,.72,.12,0,.21,0,.41-.02v.98c-.23,.06-.48,.09-.76,.09-1,0-1.66-.44-1.66-1.57Z"/><path class="cls-2" d="M161.25,37.03c0-1.93,1.3-2.77,2.65-2.77s2.65,.84,2.65,2.77-1.31,2.77-2.65,2.77-2.65-.84-2.65-2.77Zm4.05,0c0-1.16-.64-1.67-1.41-1.67s-1.42,.51-1.42,1.67,.64,1.67,1.42,1.67,1.41-.51,1.41-1.67Z"/><path class="cls-2" d="M167.18,37.02c0-1.97,1.22-2.76,2.61-2.76s2.5,.76,2.5,2.71c0,.18,0,.29-.03,.4h-3.85c.08,.99,.58,1.43,1.43,1.43,.67,0,1.06-.26,1.21-.77h1.17c-.29,1.21-1.22,1.77-2.41,1.77-1.38,0-2.63-.79-2.63-2.78Zm3.88-.45c-.03-.75-.42-1.3-1.28-1.3-.77,0-1.25,.43-1.34,1.3h2.62Z"/><path class="cls-2" d="M173.14,32.52h1.31v7.18h-1.31v-7.18Z"/><path class="cls-2" d="M175.29,37.02c0-1.97,1.22-2.76,2.62-2.76s2.5,.76,2.5,2.71c0,.18-.01,.29-.03,.4h-3.84c.08,.99,.58,1.43,1.42,1.43,.67,0,1.06-.26,1.21-.77h1.17c-.29,1.21-1.22,1.77-2.41,1.77-1.38,0-2.64-.79-2.64-2.78Zm3.88-.45c-.03-.75-.42-1.3-1.28-1.3-.77,0-1.25,.43-1.34,1.3h2.62Z"/><path class="cls-2" d="M181.04,37.04c0-1.97,1.32-2.78,2.66-2.78,.93,0,2.19,.38,2.39,2.1h-1.19c-.13-.72-.61-.99-1.21-.99-.91,0-1.42,.67-1.42,1.67s.5,1.65,1.42,1.65c.62,0,1.08-.3,1.21-1h1.19c-.16,1.71-1.45,2.11-2.39,2.11-1.33,0-2.66-.79-2.66-2.76Z"/><path class="cls-2" d="M187.48,38.2v-2.81h-.89v-1.03h.89v-1.36h1.31v1.36h1.05v1.03h-1.05v2.6c0,.46,.14,.72,.7,.72,.12,0,.21,0,.41-.02v.98c-.23,.06-.48,.09-.76,.09-1,0-1.66-.44-1.66-1.57Z"/><path class="cls-2" d="M190.69,34.36h1.31v1.27h.03c.17-.72,.68-1.33,1.58-1.33,.12,0,.27,.01,.41,.05v1.11c-.15-.02-.28-.03-.41-.03-.88,0-1.61,.53-1.61,1.78v2.48h-1.31v-5.33Z"/><path class="cls-2" d="M194.35,37.03c0-1.93,1.3-2.77,2.65-2.77s2.65,.84,2.65,2.77-1.31,2.77-2.65,2.77-2.65-.84-2.65-2.77Zm4.05,0c0-1.16-.64-1.67-1.41-1.67s-1.42,.51-1.42,1.67,.64,1.67,1.42,1.67,1.41-.51,1.41-1.67Z"/><path class="cls-2" d="M203.04,35.35c-.72,0-1.24,.43-1.24,1.3v3.05h-1.31v-5.33h1.31v1.1h.04c.1-.46,.62-1.2,1.74-1.2,1.05,0,1.86,.64,1.86,2.08v3.35h-1.31v-3.05c0-.87-.38-1.3-1.09-1.3Z"/><path class="cls-2" d="M206.45,32.88c0-.42,.35-.74,.75-.74s.74,.32,.74,.74-.35,.74-.74,.74-.75-.32-.75-.74Zm.09,1.49h1.31v5.33h-1.31v-5.33Z"/><path class="cls-2" d="M208.7,37.04c0-1.97,1.32-2.78,2.66-2.78,.93,0,2.19,.38,2.39,2.1h-1.19c-.13-.72-.61-.99-1.21-.99-.91,0-1.42,.67-1.42,1.67s.5,1.65,1.42,1.65c.62,0,1.08-.3,1.21-1h1.19c-.16,1.71-1.45,2.11-2.39,2.11-1.33,0-2.66-.79-2.66-2.76Z"/><path class="cls-2" d="M214.3,38.01h1.17c.07,.56,.5,.79,1.12,.79,.56,0,.96-.19,.96-.65,0-.33-.21-.49-.62-.57l-.98-.22c-1.08-.25-1.5-.81-1.5-1.53,0-1,.86-1.58,2.14-1.58,1.35,0,2.12,.65,2.14,1.77h-1.09c-.08-.58-.47-.78-1.05-.78s-.88,.19-.88,.56c0,.31,.21,.5,.65,.58l1.02,.23c.84,.19,1.53,.56,1.53,1.5,0,1.18-1.09,1.67-2.33,1.67-1.37,0-2.27-.58-2.28-1.78Z"/><path class="cls-2" d="M222.05,32.52h1.34v6h3.4v1.18h-4.75v-7.18Z"/><path class="cls-2" d="M227.28,38.3c0-1.11,.87-1.43,1.85-1.56l.99-.13c.52-.07,.68-.16,.68-.44v-.11c0-.65-.39-.84-.96-.84s-1.04,.19-1.04,.78v.11h-1.23v-.24c0-1.04,.71-1.61,2.3-1.61s2.22,.56,2.22,1.74v3.69h-1.26v-.95h-.05c-.11,.3-.59,1.06-1.78,1.06-.9,0-1.71-.43-1.71-1.5Zm3.52-.45v-.68c-.07,.12-.33,.18-.62,.23l-.84,.13c-.56,.08-.74,.34-.74,.66,0,.41,.28,.66,.83,.66,.84,0,1.37-.56,1.37-.99Z"/><path class="cls-2" d="M234.5,38.93v.77h-1.31v-7.18h1.31v2.61c.26-.5,.87-.87,1.65-.87,1.15,0,2.35,.82,2.35,2.77s-1.2,2.77-2.35,2.77c-.78,0-1.39-.37-1.65-.87Zm2.77-1.9c0-1.15-.69-1.67-1.43-1.67s-1.4,.52-1.4,1.67,.69,1.67,1.4,1.67,1.43-.52,1.43-1.67Z"/></g><path class="cls-1" d="M75.97,26.45c-.85,0-1.73-.31-2.4-.84L57.12,8.27V26.45h-4.44V7.29c0-2.18,1.79-3.96,3.99-3.96,.87,0,1.73,.3,2.4,.84l16.42,17.33V3.33h4.48V22.49c-.03,2.18-1.82,3.96-3.99,3.96Z"/><path class="cls-1" d="M89.41,26.45c-3.82,0-6.92-3.09-6.92-6.89V10.22c0-3.8,3.11-6.89,6.92-6.89h20.36V7.78h-20.36c-1.35,0-2.44,1.1-2.44,2.45v2.45h22.81v4.44h-22.81v2.45c0,1.33,1.1,2.41,2.44,2.41h20.36v4.48h-20.36Z"/><path class="cls-1" d="M119.18,26.45c-3.8,0-6.89-3.09-6.89-6.89V10.22c0-3.8,3.09-6.89,6.89-6.89h13.44c3.8,0,6.89,3.09,6.89,6.89v9.34c0,3.8-3.09,6.89-6.89,6.89h-13.44Zm0-18.67c-1.35,0-2.45,1.1-2.45,2.45v9.34c0,1.33,1.1,2.41,2.45,2.41h13.44c1.39,0,2.48-1.06,2.48-2.41V10.22c0-1.35-1.11-2.45-2.48-2.45h-13.44Z"/><path class="cls-2" d="M159.95,26.45c-3.78,0-6.86-3.09-6.86-6.89V3.33h4.44V19.56c0,1.33,1.08,2.41,2.41,2.41h20.36v4.48h-20.36Z"/><path class="cls-2" d="M205.8,26.45l-8.64-18.67h-2.14l-8.63,18.67h-5.15l9.96-20.91c.82-1.37,2.31-2.2,3.9-2.2h2c1.59,0,3.09,.85,3.91,2.21l9.95,20.9h-5.15Z"/><path class="cls-2" d="M211.88,26.45V3.33h20.36c3.78,0,6.86,3.09,6.86,6.89,0,1.7-.6,3.29-1.74,4.6l-.06,.07,.07,.07c1.12,1.26,1.74,2.89,1.74,4.59,0,3.8-3.08,6.89-6.86,6.89h-20.36Zm20.36-4.48c1.35,0,2.45-1.08,2.45-2.41s-1.1-2.45-2.45-2.45h-15.92v4.86h15.92Zm0-9.3c1.35,0,2.45-1.1,2.45-2.45s-1.12-2.45-2.45-2.45h-15.92v4.89h15.92Z"/><g><g><path class="cls-2" d="M12.97,14.83l8.44,6.32-4.17,1.77,8.43-3.48L15.01,11.42c-1.26-.95-2.92-1.17-4.38-.58l-7.52,3.02c-1.7,.68-2.82,2.33-2.82,4.17v22.73H4.48l-.02-22.52,8.5-3.41Z"/><path class="cls-1" d="M27.9,30.93c1.26,.94,2.92,1.16,4.37,.58l7.52-3.02c1.7-.68,2.82-2.33,2.82-4.17V1.57h-4.2l.02,22.55-8.5,3.4-8.43-6.32,4.17-1.76-8.43,3.48,10.66,8.01Z"/><path class="cls-2" d="M29.93,17.76l.04,4.88,4.22-1.68v-2.72c-.02-1.41-.68-2.73-1.81-3.58L14.98,1.6c-1.26-.95-2.93-1.16-4.39-.57L.31,5.21v4.91L13,5.04l16.93,12.72Z"/><path class="cls-1" d="M42.61,32.21l-12.64,5.11L13.01,24.62l-.04-4.94-4.24,1.71v2.7c0,1.41,.67,2.74,1.8,3.59l17.37,13.05c1.26,.95,2.92,1.16,4.38,.58l10.35-4.17-.02-4.92Z"/></g><polygon class="cls-2" points="8.73 31.33 12.94 34.49 12.94 40.75 8.73 40.75 8.73 31.33"/><polygon class="cls-1" points="34.19 1.57 29.98 1.57 29.98 7.86 34.19 11.02 34.19 1.57"/></g></svg>